<svg xmlns="http://www.w3.org/2000/svg" viewBox="0 0 2956.41 716.55"><defs><style>.cls-1{fill:#faa546;}.cls-2{fill:#243977;}.cls-3{fill:#12c0dd;}.cls-4{fill:#ba1f65;}.cls-5{font-size:427px;fill:#231f20;font-family:Arial-BoldMT, Arial;font-weight:700;}</style></defs><g id="Layer_2" data-name="Layer 2"><g id="Layer_1-2" data-name="Layer 1"><path class="cls-1" d="M556.47,19.45c-12.83-16-31.54-22.56-51.36-18.08-23.44,5.31-42.51,24.86-46.37,47.54-3,17.54-2.43,35.24-1.89,52.36.27,8.5.52,16.52.36,24.5,0,.74,0,1.47,0,2.21a210.59,210.59,0,0,1-36.61,8.87,214.13,214.13,0,0,1-63.36,0A210.46,210.46,0,0,1,320.6,128c0-.74,0-1.47-.05-2.21-.15-8,.1-16,.37-24.5.53-17.12,1.09-34.82-1.89-52.36C315.17,26.23,296.1,6.68,272.65,1.37c-19.81-4.48-38.53,2.11-51.35,18.08-10.47,13-14.13,30.55-10,48.05,3.22,13.8,11.05,27.29,23.25,40.07C252.07,126,271.63,139.22,292.66,147c.86,14.21,2.3,28,4.33,41.26,9,58.52,28.43,105,56.32,134.28A201.84,201.84,0,0,0,388.88,352a201.12,201.12,0,0,0,35.57-29.51c27.89-29.33,47.37-75.76,56.32-134.28,2-13.23,3.48-27.05,4.33-41.26,21-7.76,40.6-21,58.15-39.41,12.21-12.78,20-26.27,23.25-40.07C570.59,50,566.93,32.49,556.47,19.45ZM292.22,100.5c-.18,5.54-.36,11.2-.41,16.86-12.58-6.41-24.56-15.54-35.74-27.26-8.93-9.35-14.56-18.83-16.74-28.17C237,52,238.9,42,244.38,35.18c4.65-5.78,10.16-8.7,16.43-8.7a23.21,23.21,0,0,1,5,.58c12.12,2.74,22.8,13.9,24.85,26C293.23,68.13,292.74,83.85,292.22,100.5Zm160.12,84.05c-8.17,53.41-25.28,95.09-49.48,120.54a170.4,170.4,0,0,1-14,13.08,170.26,170.26,0,0,1-14-13.08c-24.2-25.45-41.31-67.13-49.49-120.54-1.41-9.25-2.53-18.81-3.34-28.61a228.21,228.21,0,0,0,28.4,6.63,234.43,234.43,0,0,0,76.81,0,229.08,229.08,0,0,0,28.4-6.63C454.88,165.74,453.76,175.3,452.34,184.55Zm86.1-122.62c-2.19,9.34-7.82,18.82-16.75,28.17C510.51,101.82,498.53,111,486,117.36c-.06-5.66-.24-11.32-.41-16.86-.52-16.65-1-32.37,1.55-47.49,2-12,12.74-23.21,24.86-25.95a23.07,23.07,0,0,1,5-.58c6.27,0,11.77,2.92,16.42,8.7C538.86,42,540.75,52,538.44,61.93Z"/><ellipse class="cls-1" cx="388.88" cy="87.4" rx="47.29" ry="43.57"/><path class="cls-2" d="M566.5,649.05c-3.22-13.8-11-27.29-23.25-40.07-17.55-18.39-37.11-31.65-58.15-39.41-.85-14.21-2.3-28-4.33-41.26-8.95-58.52-28.43-104.95-56.32-134.28a201.12,201.12,0,0,0-35.57-29.51A201.84,201.84,0,0,0,353.31,394C325.42,423.36,306,469.79,297,528.31c-2,13.23-3.47,27.05-4.33,41.26-21,7.76-40.59,21-58.15,39.41-12.2,12.78-20,26.27-23.25,40.07-4.09,17.5-.43,35,10,48.05,12.82,16,31.54,22.56,51.35,18.08,23.45-5.31,42.52-24.85,46.38-47.54,3-17.54,2.42-35.24,1.89-52.36-.27-8.5-.52-16.52-.37-24.5,0-.74,0-1.47.05-2.21a210.46,210.46,0,0,1,36.6-8.87,214.13,214.13,0,0,1,63.36,0,210.59,210.59,0,0,1,36.61,8.87c0,.74,0,1.47,0,2.21.16,8-.09,16-.36,24.5-.54,17.12-1.09,34.82,1.89,52.36,3.86,22.69,22.93,42.23,46.37,47.54,19.82,4.48,38.53-2.11,51.36-18.08C566.93,684.06,570.59,666.55,566.5,649.05ZM290.66,663.54c-2.05,12.05-12.73,23.21-24.85,26a23.21,23.21,0,0,1-5,.58c-6.27,0-11.78-2.92-16.43-8.7-5.48-6.83-7.37-16.83-5-26.75,2.18-9.34,7.81-18.82,16.74-28.17,11.18-11.72,23.16-20.85,35.74-27.26.05,5.66.23,11.32.41,16.86C292.74,632.7,293.23,648.42,290.66,663.54Zm165-102.93a229.08,229.08,0,0,0-28.4-6.63,234.43,234.43,0,0,0-76.81,0,228.21,228.21,0,0,0-28.4,6.63c.81-9.8,1.93-19.36,3.34-28.61,8.18-53.41,25.29-95.09,49.49-120.53a168.65,168.65,0,0,1,14-13.09,168.79,168.79,0,0,1,14,13.09c24.2,25.44,41.31,67.12,49.48,120.53C453.76,541.25,454.88,550.81,455.69,560.61Zm77.69,120.76c-4.65,5.78-10.15,8.7-16.42,8.7a23.07,23.07,0,0,1-5-.58c-12.12-2.74-22.81-13.9-24.86-26-2.57-15.12-2.07-30.84-1.55-47.49.17-5.54.35-11.2.41-16.86,12.57,6.41,24.55,15.54,35.73,27.26,8.93,9.35,14.56,18.83,16.75,28.17C540.75,664.54,538.86,674.54,533.38,681.37Z"/><ellipse class="cls-2" cx="388.88" cy="629.15" rx="47.29" ry="43.57"/><path class="cls-3" d="M756.65,512.67c17.33-11.82,24.49-29.06,19.62-47.31-5.75-21.6-27-39.17-51.6-42.73-19-2.74-38.24-2.23-56.82-1.74-9.23.25-17.94.48-26.6.34l-2.4,0a170.91,170.91,0,0,1-9.63-33.73,167.93,167.93,0,0,1,0-58.37,170.91,170.91,0,0,1,9.63-33.73l2.4,0c8.66-.14,17.37.09,26.6.34,18.58.49,37.79,1,56.82-1.74,24.63-3.56,45.85-21.13,51.6-42.73,4.87-18.25-2.29-35.49-19.62-47.31-14.15-9.64-33.16-13-52.15-9.25-15,3-29.62,10.18-43.5,21.43-20,16.17-34.34,34.19-42.77,53.57-15.43.79-30.42,2.12-44.79,4-63.52,8.25-113.91,26.19-145.74,51.88a196.4,196.4,0,0,0-32,32.78,196.72,196.72,0,0,0,32,32.77c31.83,25.69,82.22,43.63,145.74,51.88,14.37,1.87,29.36,3.2,44.79,4,8.43,19.38,22.81,37.4,42.77,53.57,13.88,11.25,28.52,18.46,43.5,21.43C723.49,525.68,742.5,522.31,756.65,512.67Zm-88-243.45c-6-.16-12.15-.33-18.31-.38,7-11.59,16.88-22.62,29.6-32.92,10.15-8.23,20.44-13.42,30.57-15.43,10.77-2.13,21.62-.39,29,4.66,6.29,4.28,9.45,9.36,9.45,15.13a17.93,17.93,0,0,1-.63,4.61c-3,11.16-15.08,21-28.16,22.89C703.82,270.15,686.75,269.7,668.68,269.22ZM577.45,416.74c-58-7.53-103.21-23.3-130.83-45.59a168.19,168.19,0,0,1-14.2-12.87,166.62,166.62,0,0,1,14.2-12.88c27.62-22.29,72.86-38.06,130.83-45.59,10-1.3,20.42-2.33,31-3.08a183.38,183.38,0,0,0,0,123.09C597.87,419.07,587.49,418,577.45,416.74Zm133.09,79.32c-10.13-2-20.42-7.2-30.57-15.43-12.72-10.3-22.63-21.33-29.6-32.92,6.16,0,12.3-.22,18.31-.38,18.07-.48,35.14-.93,51.55,1.44,13.08,1.89,25.18,11.73,28.16,22.89a17.93,17.93,0,0,1,.63,4.61c0,5.77-3.16,10.85-9.45,15.13C732.16,496.45,721.31,498.19,710.54,496.06Z"/><ellipse class="cls-3" cx="682.9" cy="358.28" rx="47.29" ry="43.57"/><path class="cls-4" d="M73.26,521.92c15-3,29.62-10.18,43.5-21.43,20-16.17,34.35-34.19,42.77-53.57,15.43-.79,30.43-2.12,44.8-4,63.51-8.25,113.91-26.19,145.74-51.88a196.66,196.66,0,0,0,32-32.77,196.34,196.34,0,0,0-32-32.78c-31.83-25.69-82.23-43.63-145.74-51.88-14.37-1.87-29.37-3.2-44.8-4-8.42-19.38-22.81-37.4-42.77-53.57-13.88-11.25-28.51-18.46-43.5-21.43-19-3.76-38-.39-52.15,9.25C3.78,215.7-3.37,232.94,1.49,251.19c5.76,21.6,27,39.17,51.6,42.73,19,2.74,38.25,2.23,56.83,1.74,9.22-.25,17.93-.48,26.6-.34l2.39,0a170.91,170.91,0,0,1,9.63,33.73,167.93,167.93,0,0,1,0,58.37,170.91,170.91,0,0,1-9.63,33.73l-2.39,0c-8.67.14-17.38-.09-26.6-.34-18.58-.49-37.8-1-56.83,1.74-24.62,3.56-45.84,21.13-51.6,42.73-4.86,18.25,2.29,35.49,19.62,47.31C35.26,522.31,54.27,525.68,73.26,521.92ZM57.54,267.78c-13.08-1.89-25.19-11.73-28.16-22.89a17.53,17.53,0,0,1-.64-4.61c0-5.77,3.17-10.85,9.45-15.13,7.41-5.05,18.26-6.79,29-4.66,10.14,2,20.43,7.2,30.58,15.43,12.71,10.3,22.63,21.33,29.59,32.92-6.15.05-12.29.22-18.3.38C91,269.7,74,270.15,57.54,267.78Zm111.72,152a184.72,184.72,0,0,0,7.2-26.16,183.83,183.83,0,0,0,0-70.77,184.72,184.72,0,0,0-7.2-26.16c10.64.75,21,1.78,31.06,3.08,58,7.53,103.21,23.3,130.83,45.59a168.15,168.15,0,0,1,14.2,12.88,169.75,169.75,0,0,1-14.2,12.87c-27.62,22.29-72.86,38.06-130.83,45.59C190.28,418,179.9,419.07,169.26,419.82ZM38.19,491.4c-6.28-4.28-9.45-9.36-9.45-15.13a17.53,17.53,0,0,1,.64-4.61c3-11.16,15.08-21,28.16-22.89C74,446.4,91,446.85,109.09,447.33c6,.16,12.15.33,18.3.38-7,11.59-16.88,22.62-29.59,32.92-10.15,8.23-20.44,13.42-30.58,15.43C56.45,498.19,45.6,496.45,38.19,491.4Z"/><ellipse class="cls-4" cx="94.87" cy="358.28" rx="47.29" ry="43.57"/><text class="cls-5" transform="translate(797.43 489.53)">AIDNESTS</text></g></g></svg>